<svg xmlns="http://www.w3.org/2000/svg" xmlns:xlink="http://www.w3.org/1999/xlink" id="Layer_1" viewBox="0 0 64 64" xml:space="preserve"><g><path d="M38,54.0001221c0,1.1044922,0.8955078,2,2,2s2-0.8955078,2-2v-1c0-4.9624023-4.0375977-9-9-9h-2   c-4.9624023,0-9,4.0375977-9,9v1c0,1.1044922,0.8955078,2,2,2s2-0.8955078,2-2v-1c0-2.7568359,2.2431641-5,5-5h2   c2.7568359,0,5,2.2431641,5,5V54.0001221z"></path><path d="M61.2695313,24.4547119l-28-23c-0.7382813-0.6064453-1.8007813-0.6064453-2.5390625,0l-28,23   C2.2680664,24.8345947,2,25.4014893,2,26.0001221v8c0,1.1044922,0.8955078,2,2,2h3v25c0,1.1044922,0.8955078,2,2,2h15   c1.1044922,0,2-0.8955078,2-2s-0.8955078-2-2-2H11v-25c0-1.1044922-0.8955078-2-2-2H6v-5.0546875L32,5.588501l26,21.3569336   v5.0546875h-3c-1.1044922,0-2,0.8955078-2,2v25H40c-1.1044922,0-2,0.8955078-2,2s0.8955078,2,2,2h15c1.1044922,0,2-0.8955078,2-2   v-25h3c1.1044922,0,2-0.8955078,2-2v-8C62,25.4014893,61.7319336,24.8345947,61.2695313,24.4547119z"></path></g></svg>