<svg xmlns="http://www.w3.org/2000/svg" data-name="Layer 1" viewBox="0 0 48 48"><path d="M26 27H12a11 11 0 0 1 0-22h14a11 11 0 0 1 11 11" stroke-linecap="round" stroke-linejoin="round" fill="none" stroke="#ffffff" stroke-width="2px" class="stroke-353535"></path><path d="M26 23H12a7 7 0 0 1 0-14h14a7 7 0 0 1 7 7" stroke-linecap="round" stroke-linejoin="round" fill="none" stroke="#ffffff" stroke-width="2px" class="stroke-353535"></path><ellipse cx="27.205" cy="15.227" rx="1.295" ry="1.619" fill="#ffffff" class="fill-353535"></ellipse><ellipse cx="10.795" cy="15.227" rx="1.295" ry="1.619" fill="#ffffff" class="fill-353535"></ellipse><path d="M14.682 16.179a5.497 5.497 0 0 0 8.636 0" stroke-linecap="round" stroke-linejoin="round" fill="none" stroke="#ffffff" stroke-width="2px" class="stroke-353535"></path><circle cx="38" cy="26.879" r="8.999" transform="rotate(-82.481 38 26.88)" stroke-miterlimit="10" fill="none" stroke="#ffffff" stroke-width="2px" class="stroke-353535"></circle><path d="m33.333 34.667-3.333 6M19 1v4M6 40h21.302a3.634 3.634 0 0 1 3.693 3.312A3.5 3.5 0 0 1 27.5 47H6a5 5 0 0 1-5-5V32a5 5 0 0 1 5-5h10" stroke-linecap="round" stroke-linejoin="round" fill="none" stroke="#ffffff" stroke-width="2px" class="stroke-353535"></path><path d="M8 31h8v4H8zM24 40v7" stroke-linecap="round" stroke-linejoin="round" fill="none" stroke="#ffffff" stroke-width="2px" class="stroke-353535"></path></svg>