<svg xmlns="http://www.w3.org/2000/svg" data-name="Layer 1" id="Layer_1" viewBox="0 0 512 512"><path d="M382.56,349.89l0-94.3a30.52,30.52,0,0,0-47.74-25.23v-9.93a30.49,30.49,0,0,0-47.87-25.12,30.45,30.45,0,0,0-47.6-23.78V99.8a30.55,30.55,0,0,0-61.1,0V229.11l-37.15,40.15a44.14,44.14,0,0,0-11.59,27.6c0,.13-.08.25-.08.39a6.22,6.22,0,0,0,.15.75,43.51,43.51,0,0,0,.56,8.89l8.48,46.72a43.16,43.16,0,0,0,9.92,20.76l29.71,40.22v64.72A6.68,6.68,0,0,0,184.9,486H355.33a6.68,6.68,0,0,0,6.69-6.69v-57l1.08-1.09C383,401.39,382.77,375.2,382.56,349.89ZM352,238.41a17.2,17.2,0,0,1,17.18,17.18v34.17l-34.38-3.92V255.59A17.21,17.21,0,0,1,352,238.41Zm-47.74-35.16a17.2,17.2,0,0,1,17.18,17.18v63.89l-34.36-3.91v-60A17.2,17.2,0,0,1,304.23,203.25Zm-152.49,148-8.47-46.72c0-.19,0-.38,0-.56h35v36.92l-25.86,12.21C152.19,352.44,151.86,351.87,151.74,351.22Zm74.2-155.61H191.58V140.85h34.36ZM191.58,209h34.36v64.46l-34.36-3.91Zm47.73,0h34.37v69.9L239.31,275Zm17.18-29.4a17.08,17.08,0,0,1,16.95,16H239.55A17.07,17.07,0,0,1,256.49,179.59Zm-47.73-97A17.19,17.19,0,0,1,225.94,99.8v27.68H191.58V99.8A17.19,17.19,0,0,1,208.76,82.63ZM178.21,248.8v41.76H144a30.49,30.49,0,0,1,6.88-12.21ZM158.9,366c-.24-.28-.37-.63-.6-.91l19.91-9.41v36.43Zm32.68,60.29H348.64v46.36H191.58ZM353.64,411.8l-1.08,1.09h-161V283l177.59,20.22,0,46.77C369.38,374.63,369.55,395.89,353.64,411.8Z"></path><path d="M151.37,140.85a6.68,6.68,0,0,0,6.68-6.69V90.09a50.71,50.71,0,0,1,101.42,0v44.07a6.69,6.69,0,1,0,13.37,0V90.09a64.08,64.08,0,1,0-128.16,0v44.07A6.68,6.68,0,0,0,151.37,140.85Z"></path></svg>