<svg xmlns="http://www.w3.org/2000/svg" xmlns:xlink="http://www.w3.org/1999/xlink" id="Layer_1" viewBox="0 0 64 64" xml:space="preserve"><g><path d="M21,13h22c1.1044922,0,2-0.8955078,2-2V3c0-1.1044922-0.8955078-2-2-2H21c-1.1044922,0-2,0.8955078-2,2v8   C19,12.1044922,19.8955078,13,21,13z M23,5h18v4H23V5z"></path><path d="M54,5h-4c-1.1044922,0-2,0.8955078-2,2s0.8955078,2,2,2h2v50H12V9h2c1.1044922,0,2-0.8955078,2-2s-0.8955078-2-2-2h-4   C8.8955078,5,8,5.8955078,8,7v54c0,1.1044922,0.8955078,2,2,2h44c1.1044922,0,2-0.8955078,2-2V7C56,5.8955078,55.1044922,5,54,5z"></path><path d="M20,25h10c1.1044922,0,2-0.8955078,2-2s-0.8955078-2-2-2H20c-1.1044922,0-2,0.8955078-2,2S18.8955078,25,20,25z"></path><path d="M43,48h-5c-1.1044922,0-2,0.8955078-2,2s0.8955078,2,2,2h5c1.1044922,0,2-0.8955078,2-2S44.1044922,48,43,48z"></path><path d="M43,30H31H21c-1.1044922,0-2,0.8955078-2,2s0.8955078,2,2,2h10h12c1.1044922,0,2-0.8955078,2-2S44.1044922,30,43,30z"></path><path d="M43,39H21c-1.1044922,0-2,0.8955078-2,2s0.8955078,2,2,2h22c1.1044922,0,2-0.8955078,2-2S44.1044922,39,43,39z"></path></g></svg>