<svg xmlns="http://www.w3.org/2000/svg" xmlns:xlink="http://www.w3.org/1999/xlink" id="Layer_1" viewBox="0 0 64 64" xml:space="preserve"><g><path d="M48.4003906,27.2998047L44,24v-9.6665039c0-0.0791626-0.0081787-0.1578369-0.0097656-0.2369385   C43.9918213,14.0639038,44,14.0330811,44,14c0-0.0785522-0.0143433-0.1531982-0.0231323-0.2293701   c-0.1144409-2.3862305-0.9421997-4.7242432-2.37677-6.6373291L40,5.0004883C38.121582,2.4956055,35.1308594,1,32,1   s-6.121582,1.4956055-8,4l-1.6000977,2.1333008C20.8525391,9.1967773,20,11.7539063,20,14.3334961v9.666626l-4.4003906,3.3001709   C13.3457031,28.9912109,12,31.6831055,12,34.5V41c0,1.1044922,0.8955078,2,2,2h8h0.6141357l2.5133057,6.7021484   C25.4199219,50.4824219,26.1665039,51,27,51h10c0.8334961,0,1.5800781-0.5175781,1.8725586-1.2978516L41.3858643,43H42h8   c1.1044922,0,2-0.8955078,2-2v-6.5C52,31.6831055,50.6542969,28.9912109,48.4003906,27.2998047z M24,14.3334961   c0-1.7197266,0.5683594-3.4243164,1.6000977-4.7998047l1.6000977-2.1337891C28.3271484,5.8974609,30.121582,5,32,5   s3.6728516,0.8974609,4.7998047,2.4003906l1.6000977,2.1333008C38.9562378,10.2753296,39.3647461,11.1162109,39.6351929,12H29   c-1.1044922,0-2,0.8955078-2,2s0.8955078,2,2,2h11v9v14H24V25V14.3334961z M16,34.5c0-1.5649414,0.7475586-3.0605469,2-4l2-1.5v10   h-4V34.5z M35.6137695,47h-7.2275391l-1.5-4h10.2275391L35.6137695,47z M48,39h-4V29l2,1.4995117   c1.2524414,0.9399414,2,2.4355469,2,4.0004883V39z"></path><path d="M35.7504883,55.4384766l-3.7504883,3l-3.7504883-3c-0.862793-0.6904297-2.1206055-0.5507813-2.8110352,0.3125   c-0.6904297,0.8623047-0.550293,2.1210938,0.3120117,2.8105469l5,4C31.1157227,62.8535156,31.5581055,63,32,63   s0.8842773-0.1464844,1.2495117-0.4384766l5-4c0.8623047-0.6894531,1.0024414-1.9482422,0.3120117-2.8105469   C37.871582,54.8876953,36.6132813,54.7480469,35.7504883,55.4384766z"></path><path d="M32,30c1.1044922,0,2-0.8955078,2-2v-3c0-1.1044922-0.8955078-2-2-2s-2,0.8955078-2,2v3C30,29.1044922,30.8955078,30,32,30   z"></path></g></svg>