<svg xmlns="http://www.w3.org/2000/svg" xmlns:xlink="http://www.w3.org/1999/xlink" id="Layer_1" viewBox="0 0 64 64" xml:space="preserve"><g><path d="M58,42c-1.1044922,0-2,0.8955078-2,2v13c0,1.1030273-0.8974609,2-2,2H10c-1.1025391,0-2-0.8969727-2-2V44   c0-1.1044922-0.8955078-2-2-2s-2,0.8955078-2,2v13c0,3.3085938,2.6914063,6,6,6h44c3.3085938,0,6-2.6914063,6-6V44   C60,42.8955078,59.1044922,42,58,42z"></path><path d="M55,11h-4V8c0-3.3099976-2.6900024-6-6-6H19c-3.3099976,0-6,2.6900024-6,6v3H9c-4.4099731,0-8,3.5899658-8,8v10   c0,5.5100098,4.4899902,10,10,10h42c5.5100098,0,10-4.4899902,10-10V19C63,14.5899658,59.4099731,11,55,11z M17,8   c0-1.1000366,0.9000244-2,2-2h26c1.0999756,0,2,0.8999634,2,2v3H17V8z M38,35H26v-1c0-1.1000366,0.9000244-2,2-2h8   c1.0999756,0,2,0.8999634,2,2V35z M59,29c0,3.3099976-2.6900024,6-6,6H42v-1c0-3.3099976-2.6900024-6-6-6h-8   c-3.3099976,0-6,2.6900024-6,6v1H11c-3.3099976,0-6-2.6900024-6-6V19c0-2.210022,1.789978-4,4-4h46c2.210022,0,4,1.789978,4,4V29z"></path><path d="M39,44H25c-1.0999756,0-2,0.8999634-2,2v7c0,1.0999756,0.9000244,2,2,2h14c1.0999756,0,2-0.9000244,2-2v-7   C41,44.8999634,40.0999756,44,39,44z M37,51H27v-3h10V51z"></path></g></svg>